<svg xmlns="http://www.w3.org/2000/svg" viewBox="0 0 512 512">
  <!-- Coral background with rounded corners (like the app icon on the login screen) -->
  <rect width="512" height="512" rx="114" fill="#e8703a"/>
  <!-- Lucide Salad icon, scaled and centered, in white -->
  <g transform="translate(104, 104) scale(12.67)"
     stroke="white" stroke-width="1.8" stroke-linecap="round" stroke-linejoin="round" fill="none">
    <path d="M7 21h10"/>
    <path d="M12 21a9 9 0 0 0 9-9H3a9 9 0 0 0 9 9Z"/>
    <path d="M11.38 12a2.4 2.4 0 0 1-.4-4.77 2.4 2.4 0 0 1 3.2-3.19 2.4 2.4 0 0 1 3.47-.63 2.4 2.4 0 0 1 3.37 3.37 2.4 2.4 0 0 1-1.1 3.7 2.51 2.51 0 0 1 .03 1.1"/>
    <path d="m13 12 4-4"/>
    <path d="M10.9 7.25A3.99 3.99 0 0 0 4 10c0 .73.2 1.41.54 2"/>
  </g>
</svg>
